<svg xmlns="http://www.w3.org/2000/svg" width="1440" height="901" viewBox="0 0 1440 901" fill="none"><path d="M830.874 1201.04C726.509 1204.35 498.249 1135.48 420.131 833.562C322.482 456.162 473.626 19.7567 274.346 35.2295C75.0655 50.7024 -71.7653 29.3075 -1.05179 -121.987C69.6617 -273.282 368.861 -431.213 132.881 -674.551M860.631 1187.93C756.266 1191.23 528.006 1122.37 449.888 820.446C352.24 443.046 503.384 6.64046 304.103 22.1133C104.823 37.5862 -42.008 16.1912 28.7054 -135.103C99.4189 -286.398 398.618 -444.329 162.638 -687.667M896.34 1172.19C791.975 1175.49 563.715 1106.63 485.596 804.706C387.948 427.307 539.092 -9.09904 339.812 6.37378C140.531 21.8467 -6.29937 0.451752 64.4141 -150.843C135.128 -302.138 434.327 -460.069 198.347 -703.407M932.049 1156.45C827.684 1159.75 599.424 1090.89 521.305 788.967C423.657 411.567 574.801 -24.8387 375.521 -9.36591C176.24 6.10703 29.4095 -15.2879 100.123 -166.583C170.836 -317.877 470.036 -475.808 234.056 -719.146M967.757 1140.71C863.392 1144.01 635.133 1075.15 557.014 773.227C459.366 395.828 610.51 -40.5782 411.229 -25.1053C211.949 -9.63241 65.1181 -31.0274 135.832 -182.322C206.545 -333.617 505.744 -491.548 269.765 -734.886M1003.47 1124.97C899.101 1128.28 670.841 1059.41 592.723 757.488C495.074 380.088 646.218 -56.3176 446.938 -40.8448C247.657 -25.3718 100.827 -46.7668 171.54 -198.061C242.254 -349.356 541.453 -507.287 305.473 -750.625M1039.17 1109.23C934.81 1112.54 706.55 1043.67 628.431 741.748C530.783 364.349 681.927 -72.057 482.647 -56.5842C283.366 -41.1113 136.535 -62.5063 207.249 -213.801C277.962 -365.096 577.162 -523.027 341.182 -766.365M1074.88 1093.49C970.519 1096.8 742.259 1027.93 664.14 726.009C566.492 348.609 717.636 -87.7965 518.356 -72.3237C319.075 -56.8507 172.244 -78.2457 242.958 -229.54C313.671 -380.835 612.871 -538.766 376.891 -782.104M1110.59 1077.75C1006.23 1081.06 777.967 1012.19 699.849 710.269C602.201 332.87 753.345 -103.536 554.064 -88.0634C354.784 -72.5904 207.953 -93.9854 278.666 -245.28C349.38 -396.575 648.579 -554.506 412.599 -797.844M1146.3 1062.01C1041.94 1065.32 813.676 996.45 735.557 694.53C637.909 317.13 789.053 -119.276 589.773 -103.803C390.492 -88.3299 243.662 -109.725 314.375 -261.019C385.088 -412.314 684.288 -570.245 448.308 -813.583M1182.01 1046.27C1077.64 1049.58 849.385 980.71 771.266 678.79C673.618 301.391 824.762 -135.015 625.481 -119.542C426.201 -104.069 279.37 -125.464 350.084 -276.759C420.797 -428.054 719.997 -585.985 484.017 -829.323M1211.49 1033.93C1107.12 1037.23 878.864 968.366 800.745 666.446C703.097 289.046 854.241 -147.36 654.96 -131.887C455.68 -116.414 308.849 -137.809 379.563 -289.103C450.276 -440.398 749.475 -598.329 513.496 -841.667M1241.25 1020.81C1136.88 1024.12 908.621 955.249 830.502 653.33C732.854 275.93 883.998 -160.476 684.718 -145.003C485.437 -129.53 338.606 -150.925 409.32 -302.22C480.033 -453.514 779.233 -611.445 543.253 -854.783M1276.95 1005.07C1172.59 1008.38 944.329 939.51 866.211 637.59C768.563 260.19 919.707 -176.215 720.426 -160.742C521.146 -145.27 374.315 -166.665 445.028 -317.959C515.742 -469.254 814.941 -627.185 578.962 -870.523M1312.66 989.332C1208.3 992.638 980.038 923.77 901.92 621.85C804.271 244.451 955.415 -191.955 756.135 -176.482C556.855 -161.009 410.024 -182.404 480.737 -333.699C551.451 -484.993 850.65 -642.925 614.67 -886.263M1348.37 973.592C1244.01 976.898 1015.75 908.031 937.628 606.111C839.98 228.711 991.124 -207.694 791.844 -192.222C592.563 -176.749 445.733 -198.144 516.446 -349.438C587.159 -500.733 886.359 -658.664 650.379 -902.002M1384.08 957.853C1279.72 961.159 1051.46 892.291 973.337 590.372C875.689 212.972 1026.83 -223.434 827.552 -207.961C628.272 -192.488 481.441 -213.883 552.155 -365.178C622.868 -516.472 922.067 -674.403 686.088 -917.741M1419.79 942.113C1315.42 945.419 1087.16 876.552 1009.05 574.632C911.397 197.232 1062.54 -239.173 863.261 -223.701C663.981 -208.228 517.15 -229.623 587.863 -380.917C658.577 -532.212 957.776 -690.143 721.796 -933.481M1455.5 926.374C1351.13 929.68 1122.87 860.812 1044.75 558.893C947.106 181.493 1098.25 -254.913 898.97 -239.44C699.689 -223.967 552.859 -245.362 623.572 -396.657C694.286 -547.951 993.485 -705.882 757.505 -949.22M1491.21 910.634C1386.84 913.94 1158.58 845.073 1080.46 543.153C982.815 165.753 1133.96 -270.653 934.678 -255.18C735.398 -239.707 588.567 -261.102 659.281 -412.396C729.994 -563.691 1029.19 -721.622 793.214 -964.96M1526.92 894.895C1422.55 898.201 1194.29 829.333 1116.17 527.413C1018.52 150.014 1169.67 -286.392 970.387 -270.919C771.107 -255.446 624.276 -276.841 694.989 -428.136C765.703 -579.43 1064.9 -737.361 828.922 -980.7M1562.62 879.155C1458.26 882.461 1230 813.594 1151.88 511.674C1054.23 134.274 1205.38 -302.131 1006.1 -286.659C806.815 -271.186 659.985 -292.581 730.698 -443.875C801.412 -595.17 1100.61 -753.101 864.631 -996.439M448.959 1369.16C344.594 1372.47 116.334 1303.6 38.2154 1001.68C-59.4328 624.279 91.7113 187.873 -107.569 203.346C-306.85 218.819 -453.68 197.424 -382.967 46.1294C-312.253 -105.165 -13.054 -263.096 -249.034 -506.434M478.716 1356.04C374.351 1359.35 146.091 1290.48 67.9727 988.562C-29.6756 611.163 121.469 174.757 -77.812 190.23C-277.092 205.703 -423.923 184.308 -353.21 33.0131C-282.496 -118.282 16.7032 -276.213 -219.277 -519.551M514.425 1340.3C410.06 1343.61 181.8 1274.74 103.681 972.823C6.03306 595.423 157.177 159.018 -42.1033 174.49C-241.384 189.963 -388.215 168.568 -317.501 17.2736C-246.788 -134.021 52.4118 -291.952 -183.568 -535.29M550.134 1324.56C445.769 1327.87 217.509 1259 139.39 957.083C41.7419 579.684 192.886 143.278 -6.39447 158.751C-205.675 174.224 -352.506 152.829 -281.792 1.53394C-211.079 -149.761 88.1207 -307.692 -147.859 -551.03M585.842 1308.82C481.477 1312.13 253.217 1243.26 175.099 941.344C77.4506 563.944 228.595 127.538 29.3142 143.011C-169.966 158.484 -316.797 137.089 -246.084 -14.2055C-175.37 -165.5 123.829 -323.431 -112.15 -566.769M621.551 1293.09C517.186 1296.39 288.926 1227.52 210.807 925.604C113.159 548.205 264.303 111.799 65.0228 127.272C-134.258 142.745 -281.088 121.35 -210.375 -29.9449C-139.661 -181.24 159.538 -339.171 -76.4418 -582.509M657.26 1277.35C552.894 1280.65 324.635 1211.78 246.516 909.865C148.868 532.465 300.012 96.0595 100.731 111.532C-98.549 127.005 -245.38 105.61 -174.666 -45.6844C-103.953 -196.979 195.247 -354.91 -40.7332 -598.248M692.969 1261.61C588.603 1264.91 360.344 1196.05 282.225 894.125C184.577 516.726 335.721 80.32 136.44 95.7928C-62.8401 111.266 -209.671 89.8708 -138.957 -61.4238C-68.2439 -212.718 230.956 -370.65 -5.02429 -613.988M728.677 1245.87C624.312 1249.17 396.052 1180.31 317.934 878.386C220.285 500.986 371.429 64.5803 172.149 80.0531C-27.1315 95.526 -173.962 74.1311 -103.249 -77.1635C-32.5353 -228.458 266.664 -386.389 30.6843 -629.727M764.386 1230.13C660.021 1233.43 431.761 1164.57 353.642 862.646C255.994 485.247 407.138 48.8409 207.858 64.3137C8.57715 79.7867 -138.254 58.3917 -67.5401 -92.903C3.17333 -244.198 302.373 -402.129 66.3929 -645.467M800.094 1214.39C695.729 1217.69 467.469 1148.83 389.351 846.907C291.703 469.507 442.847 33.1014 243.566 48.5742C44.2858 64.0472 -102.545 42.6523 -31.8315 -108.642C38.882 -259.937 338.081 -417.868 102.102 -661.206" stroke="white" stroke-opacity="0.08" stroke-width="1.00069"></path></svg>